<?xml version="1.0" standalone="no"?>
<!DOCTYPE svg PUBLIC "-//W3C//DTD SVG 20010904//EN"
 "http://www.w3.org/TR/2001/REC-SVG-20010904/DTD/svg10.dtd">
<svg version="1.0" xmlns="http://www.w3.org/2000/svg"
 width="1024.000000pt" height="1024.000000pt" viewBox="0 0 1024.000000 1024.000000"
 preserveAspectRatio="xMidYMid meet">

<g transform="translate(0.000000,1024.000000) scale(0.100000,-0.100000)"
fill="#000000" stroke="none">
<path d="M0 5120 l0 -5120 5120 0 5120 0 0 5120 0 5120 -5120 0 -5120 0 0
-5120z m5549 3805 c566 -79 1064 -291 1484 -632 612 -497 1004 -1221 1099
-2028 18 -160 16 -531 -5 -685 -54 -391 -147 -696 -315 -1025 -142 -277 -320
-521 -548 -749 -223 -222 -478 -411 -734 -541 -109 -55 -136 -65 -180 -65 -65
0 -120 29 -157 83 -23 33 -28 51 -28 101 0 94 23 123 153 192 340 182 598 386
819 649 184 220 374 543 467 798 312 849 167 1800 -382 2521 -96 126 -318 355
-437 451 -358 288 -778 473 -1250 552 -159 26 -649 26 -815 0 -539 -86 -1039
-328 -1412 -685 -455 -436 -729 -976 -809 -1597 -17 -128 -17 -490 0 -620 41
-325 134 -629 277 -905 231 -443 581 -816 1023 -1089 137 -85 168 -138 140
-239 -29 -102 -138 -166 -235 -137 -73 22 -254 138 -424 271 -634 496 -1030
1170 -1150 1959 -30 197 -38 555 -16 760 154 1445 1271 2537 2736 2675 140 13
564 4 699 -15z m1103 -1392 c118 -56 208 -158 245 -278 17 -56 18 -112 18
-830 0 -725 -1 -773 -19 -825 -51 -153 -161 -265 -297 -304 -49 -15 -201 -16
-1485 -14 l-1429 3 -57 23 c-118 48 -222 152 -270 269 l-23 58 0 780 c0 738 1
783 19 835 29 85 54 129 104 183 57 60 102 90 179 116 57 20 77 20 1503 18
l1445 -2 67 -32z m-1191 -2536 c21 -14 35 -32 37 -47 1 -14 -20 -108 -47 -210
-110 -414 -232 -903 -227 -916 4 -10 78 -14 380 -16 l376 -3 26 -26 c19 -19
26 -37 26 -63 0 -43 11 -26 -570 -863 -638 -919 -713 -1023 -743 -1038 -49
-26 -109 15 -109 73 0 18 36 169 80 335 170 645 240 922 240 943 0 13 -9 28
-19 34 -13 6 -146 10 -364 10 l-344 0 -24 26 c-16 17 -24 37 -24 62 0 32 16
60 101 177 56 77 318 442 584 810 265 369 492 681 504 694 40 45 70 49 117 18z"/>
<path d="M3722 7184 l-22 -15 0 -733 c0 -708 1 -735 19 -757 l19 -24 1387 0
c1361 0 1387 0 1401 19 12 17 14 136 14 757 l0 738 -22 15 c-20 14 -169 16
-1398 16 -1229 0 -1378 -2 -1398 -16z m818 -779 l0 -365 -185 0 -185 0 0 358
c0 197 3 362 7 365 3 4 87 7 185 7 l178 0 0 -365z m770 0 l0 -365 -185 0 -185
0 0 365 0 365 185 0 185 0 0 -365z m750 0 l0 -365 -180 0 -180 0 0 365 0 365
180 0 180 0 0 -365z"/>
</g>
</svg>
